<svg width="267" height="166" viewBox="0 0 267 166" fill="none" xmlns="http://www.w3.org/2000/svg">
<path d="M157.474 107.158L198.526 20L256 145.053H225.684C198.347 123.287 175.955 137.343 172 145.053H136C175.916 97.0526 195.368 111.579 212.421 111.579L214.947 112.211L216.211 111.579L199.789 75.5789L189.684 98.9474C176.543 99.5564 169.532 101.546 157.474 107.158Z" fill="#5e5b5b" stroke="#5e5b5b"/>
<path d="M99.5 20.5H11C11 20.5 14.5 29 22 32.5C29.5 36 33.5 36 33.5 36C33.5 36 64.5 36 76 38C80.6466 38.8081 83.4422 39.3018 85.4101 39.9281C86.4026 39.9625 87.384 40.1416 88.338 40.477C92.2104 41.8382 94.8241 45.4899 95.8107 50.1494C96.3154 51.923 96.5424 54.8221 97 61C97.1622 63.1898 97.3376 65.2611 97.5069 67.261C98.3814 77.5907 99.0945 86.0141 97 99C94.5 114.5 76.2558 122.562 71 124C65.7442 125.438 58.5 124 58.5 124C53.2634 123.135 48.1039 121.249 42.0627 119.041C39.4061 118.07 36.5791 117.036 33.5 116L22 132C35.1667 137.667 64.4 146.5 76 144.5C92.2095 138.395 107.677 124.477 110 121.5C110.359 121.041 110.727 120.604 111.1 120.162C113.146 117.737 115.348 115.127 117 107.5C118.286 101.563 117.705 75.9218 117.273 56.8109C117.048 46.8927 116.863 38.7333 117 36C117.4 28 110.5 20.5 99.5 20.5Z" fill="#5e5b5b" stroke="#5e5b5b"/>
</svg>
